<svg xmlns="http://www.w3.org/2000/svg" xmlns:xlink="http://www.w3.org/1999/xlink" width="269" height="269" data-name="レイヤー 2"><defs><linearGradient id="a" x1="0" x2="269" y1="134.5" y2="134.5" data-name="名称未設定グラデーション 17" gradientUnits="userSpaceOnUse"><stop offset="0" stop-color="#a6a3ff"/><stop offset=".48" stop-color="#e4fdff"/><stop offset="1" stop-color="#c494ff"/></linearGradient><linearGradient xlink:href="#a" id="b" x1="80" x2="189" y1="134" y2="134" data-name="名称未設定グラデーション 17"/><linearGradient xlink:href="#a" id="c" x1="80" x2="189" y1="134" y2="134" data-name="名称未設定グラデーション 17"/></defs><g data-name="レイヤー 1"><path d="M134.5 4c34.86 0 67.63 13.57 92.28 38.22C251.43 66.87 265 99.64 265 134.5s-13.57 67.63-38.22 92.28C202.13 251.43 169.36 265 134.5 265s-67.63-13.57-92.28-38.22C17.57 202.13 4 169.36 4 134.5s13.57-67.63 38.22-92.28C66.87 17.57 99.64 4 134.5 4m0-4C60.22 0 0 60.22 0 134.5S60.22 269 134.5 269 269 208.78 269 134.5 208.78 0 134.5 0Z" style="fill:url(#a)"/><path d="M80 134h104.19" style="fill:none;stroke:url(#b);stroke-miterlimit:10;stroke-width:4px"/><path d="M156.85 153.2c-.59-.93-.32-2.17.62-2.76L183.28 134l-25.81-16.44a2.005 2.005 0 0 1-.62-2.76c.59-.93 1.84-1.2 2.77-.61l28.46 18.13c.57.37.93 1 .93 1.69s-.35 1.32-.93 1.69l-28.46 18.13a2 2 0 0 1-2.76-.62Z" style="fill:url(#c)"/></g></svg>