<svg xmlns="http://www.w3.org/2000/svg" id="_レイヤー_2" data-name="レイヤー 2" viewBox="0 0 333.3 73.8">
  <defs>
    <style>
      .cls-1{fill:#fff}
    </style>
  </defs>
  <g id="_レイヤー_1-2" data-name="レイヤー 1">
    <path d="m22 27-6 3-4-3-2 1-1 2 5 4c4 1 7 3 8 5 2 1 2 3 2 6s-1 6-3 8c-3 2-5 3-9 3-6 0-10-3-12-8l7-3 2 3 3 1c3 0 4-1 4-4l-3-4a87 87 0 0 0-5-2l-4-3c-2-2-2-3-2-6s1-5 3-7 4-3 7-3c5 0 8 2 10 7ZM39 74h-7V21h7v4c4-3 7-5 11-5 5 0 9 2 12 5 3 4 4 8 4 13s-1 10-4 13-7 5-12 5c-4 0-7-1-11-5v23Zm19-36-2-8c-2-2-4-3-7-3s-5 1-7 3-3 5-3 8 1 6 3 8c1 2 4 3 7 3 2 0 5-1 7-3l2-8ZM100 21h8v34h-8v-3a15 15 0 0 1-22-1c-3-3-5-8-5-13s2-9 5-13a15 15 0 0 1 22 0v-4ZM81 38c0 3 1 6 3 8s4 3 7 3 5-1 7-3 2-5 2-8 0-6-2-8-4-3-7-3-5 1-7 3-3 5-3 8ZM145 22v11l-5-5-5-1c-3 0-6 1-8 3s-3 5-3 8 1 6 3 8 5 3 8 3l5-1 5-5v11l-10 2c-5 0-10-2-13-5-4-3-6-8-6-13s2-9 6-13a20 20 0 0 1 23-3ZM183 40h-24c0 3 1 5 3 7l6 2 5-1 4-6 7 4-4 5-3 3-5 2h-4c-6 0-10-1-13-5-3-3-4-7-4-13s1-10 4-13 7-5 12-5 9 2 12 5 4 7 4 13v2Zm-8-7c-1-4-4-6-8-6l-2 1a8 8 0 0 0-5 3l-1 2h16ZM215 25l10 12v-1a121 121 0 0 0 6-6l5 5-3 3-3 5 10 12h-11l-5-6c-5 5-10 7-15 7s-9-1-13-4c-3-3-5-7-5-12s3-10 8-13l4-3h1c-4-4-6-8-6-12s1-6 4-9c2-2 5-3 9-3s7 1 9 3c3 3 4 5 4 9l-2 6-7 7Zm-7 5-7 5-2 5 3 6 6 3c3 0 7-2 11-6l-11-13Zm2-11h1a57 57 0 0 0 4-4l1-3-1-4-4-1-4 1-1 4c0 1 0 3 2 4l2 3ZM271 22v11l-5-5-5-1c-2 0-5 1-7 3s-3 5-3 8 1 6 3 8 4 3 7 3l5-1 5-5v11l-9 2c-6 0-10-2-14-5-3-3-5-8-5-13s2-9 5-13c4-3 9-5 14-5l9 2ZM277 38c0-5 2-9 6-13 3-3 8-5 13-5a18 18 0 1 1-1 36c-5 0-9-2-12-5-4-4-6-8-6-13Zm8 0c0 3 1 6 3 8s5 3 8 3 5-1 7-3 3-5 3-8-1-6-3-8-4-3-7-3-6 1-8 3-3 5-3 8ZM323 51l2-3 3-2 4 2 1 3-1 4-4 1-3-1-2-4Z" class="cls-1"/>
  </g>
</svg>
