<?xml version="1.0" encoding="UTF-8"?>
<svg id="_レイヤー_2" data-name="レイヤー 2" xmlns="http://www.w3.org/2000/svg" viewBox="0 0 389.01 388.99">
  <defs>
    <style>
      .cls-1 {
        fill: #fff;
        font-family: NOLARegular, NOLA;
        font-size: 38.5px;
      }
    </style>
  </defs>
  <g id="_レイヤー_1-2" data-name="レイヤー 1">
    <text class="cls-1" transform="translate(194.21 27.53) rotate(4.18)"><tspan x="0" y="0">S</tspan></text>
    <text class="cls-1" transform="translate(218.8 29.04) rotate(13.56)"><tspan x="0" y="0">C</tspan></text>
    <text class="cls-1" transform="translate(247.83 36.27) rotate(22.71)"><tspan x="0" y="0">R</tspan></text>
    <text class="cls-1" transform="translate(269.16 44.82) rotate(31.83)"><tspan x="0" y="0">O</tspan></text>
    <text class="cls-1" transform="translate(294.7 60.6) rotate(42.1)"><tspan x="0" y="0">O</tspan></text>
    <text class="cls-1" transform="translate(316.78 81.05) rotate(50.32)"><tspan x="0" y="0">L</tspan></text>
    <text class="cls-1" transform="translate(328.33 95.27) rotate(54.84)"><tspan x="0" y="0"> </tspan></text>
    <text class="cls-1" transform="translate(333.08 102) rotate(57.67)"><tspan x="0" y="0"> </tspan></text>
    <text class="cls-1" transform="translate(337.75 108.54) rotate(63.34)"><tspan x="0" y="0">S</tspan></text>
    <text class="cls-1" transform="translate(349.05 130.42) rotate(72.76)"><tspan x="0" y="0">C</tspan></text>
    <text class="cls-1" transform="translate(357.72 159.08) rotate(81.9)"><tspan x="0" y="0">R</tspan></text>
    <text class="cls-1" transform="translate(361.29 181.79) rotate(90.93)"><tspan x="0" y="0">O</tspan></text>
    <text class="cls-1" transform="translate(360.89 211.8) rotate(101.16)"><tspan x="0" y="0">O</tspan></text>
    <text class="cls-1" transform="translate(354.7 241.22) rotate(109.48)"><tspan x="0" y="0">L</tspan></text>
    <text class="cls-1" transform="translate(348.41 258.43) rotate(114.05)"><tspan x="0" y="0"> </tspan></text>
    <text class="cls-1" transform="translate(345.05 265.96) rotate(116.9)"><tspan x="0" y="0"> </tspan></text>
    <text class="cls-1" transform="translate(341.82 273.31) rotate(122.57)"><tspan x="0" y="0">S</tspan></text>
    <text class="cls-1" transform="translate(328.8 294.22) rotate(131.89)"><tspan x="0" y="0">C</tspan></text>
    <text class="cls-1" transform="translate(308.65 316.36) rotate(140.93)"><tspan x="0" y="0">R</tspan></text>
    <text class="cls-1" transform="translate(291.01 331.12) rotate(150.01)"><tspan x="0" y="0">O</tspan></text>
    <text class="cls-1" transform="translate(265.07 346.18) rotate(160.35)"><tspan x="0" y="0">O</tspan></text>
    <text class="cls-1" transform="translate(236.61 355.93) rotate(168.68)"><tspan x="0" y="0">L</tspan></text>
    <text class="cls-1" transform="translate(218.58 359.35) rotate(173.24)"><tspan x="0" y="0"> </tspan></text>
    <text class="cls-1" transform="translate(210.42 360.32) rotate(176.06)"><tspan x="0" y="0"> </tspan></text>
    <text class="cls-1" transform="translate(202.42 361.3) rotate(-178.37)"><tspan x="0" y="0">S</tspan></text>
    <text class="cls-1" transform="translate(177.8 360.89) rotate(-169.04)"><tspan x="0" y="0">C</tspan></text>
    <text class="cls-1" transform="translate(148.46 354.99) rotate(-159.89)"><tspan x="0" y="0">R</tspan></text>
    <text class="cls-1" transform="translate(126.75 347.4) rotate(-150.74)"><tspan x="0" y="0">O</tspan></text>
    <text class="cls-1" transform="translate(100.54 332.8) rotate(-140.47)"><tspan x="0" y="0">O</tspan></text>
    <text class="cls-1" transform="translate(77.57 313.35) rotate(-132.25)"><tspan x="0" y="0">L</tspan></text>
    <text class="cls-1" transform="translate(65.38 299.66) rotate(-127.72)"><tspan x="0" y="0"> </tspan></text>
    <text class="cls-1" transform="translate(60.34 293.15) rotate(-124.9)"><tspan x="0" y="0"> </tspan></text>
    <text class="cls-1" transform="translate(55.39 286.83) rotate(-119.25)"><tspan x="0" y="0">S</tspan></text>
    <text class="cls-1" transform="translate(43.12 265.49) rotate(-109.85)"><tspan x="0" y="0">C</tspan></text>
    <text class="cls-1" transform="translate(33.16 237.25) rotate(-100.69)"><tspan x="0" y="0">R</tspan></text>
    <text class="cls-1" transform="translate(28.56 214.72) rotate(-91.62)"><tspan x="0" y="0">O</tspan></text>
    <text class="cls-1" transform="translate(27.63 184.72) rotate(-81.43)"><tspan x="0" y="0">O</tspan></text>
    <text class="cls-1" transform="translate(32.49 155.04) rotate(-73.11)"><tspan x="0" y="0">L</tspan></text>
    <text class="cls-1" transform="translate(38 137.56) rotate(-68.53)"><tspan x="0" y="0"> </tspan></text>
    <text class="cls-1" transform="translate(41.01 129.89) rotate(-65.68)"><tspan x="0" y="0"> </tspan></text>
    <text class="cls-1" transform="translate(43.91 122.39) rotate(-60)"><tspan x="0" y="0">S</tspan></text>
    <text class="cls-1" transform="translate(55.99 100.91) rotate(-50.66)"><tspan x="0" y="0">C</tspan></text>
    <text class="cls-1" transform="translate(75.13 77.9) rotate(-41.63)"><tspan x="0" y="0">R</tspan></text>
    <text class="cls-1" transform="translate(92.09 62.37) rotate(-32.56)"><tspan x="0" y="0">O</tspan></text>
    <text class="cls-1" transform="translate(117.33 46.16) rotate(-22.23)"><tspan x="0" y="0">O</tspan></text>
    <text class="cls-1" transform="translate(145.32 35.13) rotate(-13.9)"><tspan x="0" y="0">L</tspan></text>
    <text class="cls-1" transform="translate(163.14 30.92) rotate(-9.34)"><tspan x="0" y="0"> </tspan></text>
    <text class="cls-1" transform="translate(171.29 29.57) rotate(-6.5)"><tspan x="0" y="0"> </tspan></text>
  </g>
</svg>